<?xml version="1.0" encoding="iso-8859-1"?>
<!-- Generator: Adobe Illustrator 19.0.0, SVG Export Plug-In . SVG Version: 6.00 Build 0)  -->
<svg version="1.1" id="Layer_1" xmlns="http://www.w3.org/2000/svg" xmlns:xlink="http://www.w3.org/1999/xlink" x="0px" y="0px"
	 viewBox="0 0 512 512" style="enable-background:new 0 0 512 512;" xml:space="preserve">
<path style="fill:#D8143A;" d="M323.651,217.042c0-43.926-17.6-83.814-46.109-113.001c-17.16,3.463-32.946,10.747-46.44,20.924
	c27.918,21.059,46.002,54.492,46.002,92.078c0,37.584-18.084,71.018-46.002,92.076c-13.494,10.178-29.282,17.461-46.441,20.924
	c-7.384,1.489-15.02,2.281-22.837,2.281c-63.566,0-115.281-51.715-115.281-115.281c0-63.567,51.715-115.282,115.281-115.282
	c7.817,0,15.453,0.79,22.837,2.281c13.324-13.641,29.029-24.944,46.441-33.227c-21.014-9.995-44.504-15.599-69.277-15.599
	C72.595,55.215,0,127.811,0,217.042c0,81.327,60.309,148.826,138.55,160.146l0.002,30.25h-28.686
	c-12.853,0-23.273,10.42-23.273,23.273s10.42,23.273,23.273,23.273h28.684v28.684c0,12.853,10.42,23.273,23.273,23.271
	c12.853,0,23.273-10.42,23.273-23.273v-28.683h28.684c12.853,0,23.273-10.42,23.273-23.273s-10.42-23.273-23.273-23.273h-28.684
	l-0.002-30.25c16.235-2.349,31.696-7.112,46.007-13.92c17.411-8.282,33.116-19.586,46.44-33.227
	C306.052,300.855,323.651,260.969,323.651,217.042z"/>
<path style="fill:#5A2479;" d="M511.736,26.023c-0.057-0.413-0.105-0.827-0.188-1.232c-0.078-0.393-0.186-0.78-0.285-1.17
	c-0.088-0.346-0.163-0.697-0.267-1.035c-0.115-0.385-0.262-0.762-0.4-1.142c-0.121-0.335-0.23-0.676-0.366-1.005
	c-0.149-0.358-0.326-0.709-0.493-1.063c-0.157-0.334-0.306-0.675-0.481-0.999c-0.186-0.348-0.4-0.683-0.605-1.022
	c-0.188-0.31-0.363-0.627-0.563-0.928c-0.264-0.394-0.557-0.773-0.849-1.153c-0.169-0.223-0.326-0.458-0.503-0.675
	c-0.486-0.591-1.001-1.165-1.553-1.718c-0.552-0.552-1.13-1.071-1.722-1.556c-0.197-0.161-0.41-0.303-0.611-0.458
	c-0.402-0.309-0.802-0.619-1.219-0.897c-0.275-0.183-0.563-0.343-0.846-0.515c-0.369-0.223-0.734-0.455-1.111-0.655
	c-0.292-0.157-0.597-0.289-0.895-0.431c-0.388-0.186-0.774-0.38-1.17-0.543c-0.285-0.118-0.582-0.213-0.874-0.32
	c-0.424-0.155-0.849-0.318-1.278-0.448c-0.278-0.084-0.563-0.143-0.844-0.217c-0.453-0.118-0.908-0.244-1.365-0.334
	c-0.298-0.059-0.604-0.092-0.906-0.138c-0.447-0.07-0.894-0.15-1.345-0.194c-0.451-0.043-0.914-0.051-1.373-0.07
	c-0.299-0.011-0.594-0.045-0.897-0.045h-73.478c-12.853,0-23.273,10.42-23.273,23.273s10.42,23.273,23.273,23.273h17.296
	l-35.061,35.064c-27.066-20.368-60.698-32.456-97.105-32.456c-24.776,0-48.263,5.604-69.275,15.599
	c-17.413,8.282-33.117,19.586-46.441,33.227c-28.508,29.189-46.109,69.075-46.109,113.002s17.602,83.813,46.109,113
	c17.16-3.463,32.946-10.747,46.441-20.924c-27.918-21.059-46.004-54.492-46.004-92.076c0-37.585,18.086-71.019,46.004-92.078
	c13.492-10.178,29.28-17.461,46.44-20.924c7.385-1.489,15.019-2.281,22.837-2.281c63.566,0,115.281,51.715,115.281,115.282
	c0,63.566-51.715,115.281-115.281,115.281c-7.818,0-15.452-0.79-22.837-2.281c-13.324,13.641-29.029,24.944-46.44,33.227
	c21.012,9.995,44.501,15.599,69.275,15.599c89.231,0,161.826-72.595,161.826-161.826c0-36.076-11.869-69.427-31.901-96.366
	l35.151-35.153v17.293c0,12.853,10.42,23.273,23.273,23.273S512,115.669,512,102.817v-73.47v-0.009c0-0.776-0.042-1.541-0.115-2.296
	C511.85,26.699,511.784,26.361,511.736,26.023z"/>
<g>
	<path style="fill:#FF3F62;" d="M161.826,101.76c7.817,0,15.453,0.79,22.837,2.281c13.324-13.641,29.029-24.944,46.442-33.227
		c-21.014-9.995-44.504-15.599-69.277-15.599c-89.142,0-161.679,72.453-161.823,161.562h46.549
		C46.696,153.332,98.349,101.76,161.826,101.76z"/>
	<path style="fill:#FF3F62;" d="M231.103,124.964c27.853,21.009,45.914,54.336,45.999,91.812h46.545
		c-0.071-43.823-17.655-83.608-46.106-112.736C260.383,107.504,244.595,114.788,231.103,124.964z"/>
</g>
<path style="fill:#8034AD;" d="M465.455,85.523v17.293c0,12.853,10.42,23.273,23.273,23.273S512,115.669,512,102.817v-73.47v-0.009
	c0-0.776-0.042-1.541-0.115-2.296c-0.034-0.34-0.099-0.678-0.149-1.016c-0.057-0.413-0.105-0.827-0.188-1.232
	c-0.078-0.393-0.186-0.78-0.285-1.17c-0.088-0.346-0.163-0.697-0.267-1.035c-0.115-0.385-0.262-0.762-0.4-1.142
	c-0.121-0.335-0.23-0.676-0.366-1.005c-0.149-0.358-0.326-0.709-0.493-1.063c-0.158-0.334-0.306-0.675-0.481-0.999
	c-0.186-0.348-0.4-0.683-0.605-1.022c-0.188-0.31-0.363-0.627-0.563-0.928c-0.264-0.394-0.557-0.773-0.849-1.153
	c-0.169-0.223-0.326-0.458-0.503-0.675c-0.486-0.591-1.001-1.165-1.553-1.718c-0.552-0.552-1.13-1.071-1.722-1.556
	c-0.197-0.161-0.41-0.303-0.611-0.458c-0.402-0.309-0.802-0.619-1.219-0.897c-0.275-0.183-0.563-0.343-0.846-0.515
	c-0.369-0.223-0.734-0.455-1.111-0.655c-0.292-0.157-0.597-0.289-0.895-0.431c-0.388-0.186-0.774-0.38-1.17-0.543
	c-0.285-0.118-0.582-0.213-0.874-0.32c-0.424-0.155-0.849-0.318-1.278-0.448c-0.278-0.084-0.563-0.143-0.844-0.217
	c-0.453-0.118-0.908-0.244-1.365-0.334c-0.298-0.059-0.604-0.092-0.906-0.138c-0.447-0.07-0.894-0.15-1.345-0.194
	c-0.451-0.043-0.914-0.051-1.373-0.068c-0.299-0.011-0.594-0.045-0.897-0.045h-73.478c-12.853,0-23.273,10.42-23.273,23.273
	s10.42,23.273,23.273,23.273h17.296l-35.061,35.061c-27.066-20.367-60.698-32.455-97.105-32.455
	c-24.776,0-48.263,5.604-69.275,15.599c-17.413,8.282-33.117,19.586-46.441,33.227c-28.508,29.189-46.109,69.075-46.109,113.002
	h46.545c0-37.584,18.086-71.019,46.004-92.076c13.492-10.178,29.28-17.461,46.44-20.924c7.385-1.489,15.019-2.281,22.837-2.281
	c63.566,0,115.281,51.715,115.281,115.281h46.545c0-36.074-11.869-69.427-31.902-96.366L465.455,85.523z"/>
<g>
</g>
<g>
</g>
<g>
</g>
<g>
</g>
<g>
</g>
<g>
</g>
<g>
</g>
<g>
</g>
<g>
</g>
<g>
</g>
<g>
</g>
<g>
</g>
<g>
</g>
<g>
</g>
<g>
</g>
</svg>
