<?xml version="1.0" encoding="iso-8859-1"?>
<!-- Generator: Adobe Illustrator 16.0.0, SVG Export Plug-In . SVG Version: 6.00 Build 0)  -->
<!DOCTYPE svg PUBLIC "-//W3C//DTD SVG 1.1//EN" "http://www.w3.org/Graphics/SVG/1.1/DTD/svg11.dtd">
<svg version="1.1" id="Capa_1" xmlns="http://www.w3.org/2000/svg" xmlns:xlink="http://www.w3.org/1999/xlink" x="0px" y="0px"
	 width="36.762px" height="36.762px" viewBox="0 0 36.762 36.762" style="enable-background:new 0 0 36.762 36.762;"
	 xml:space="preserve">
<g>
	<path d="M17.588,15.437c0-0.433,0.301-0.744,0.709-0.744c0.432,0,0.708,0.312,0.708,0.744c0,0.42-0.275,0.743-0.708,0.743
		C17.877,16.179,17.588,15.856,17.588,15.437z M17.889,13.72l-0.168-5.757h1.152l-0.168,5.757H17.889z M29.422,4.48
		c-2.06-2.299-4.78-4.433-11.504-4.48c-2.629-0.021-6.64,0.601-9.761,3.901c-1.889,1.993-3.279,4.511-2.884,8.627
		c0.087,0.893,1.362,1.926,0.465,3.65c0,0-1.925,3.387-1.857,3.951c0,0-0.033,1.03,1.561,1.062c0,0,0.398,0.052,0.283,0.93
		l-0.018,1.28c0,0,0.049,0.381,0.748,0.612c0,0,0.132,0.133-0.066,0.384c0,0-0.368,0.409,0.264,1.294
		c0.234,0.322,0.614,0.729,0.382,1.562c0,0-0.298,1.607,0.333,1.992c0,0,0.718,0.852,3.603,0.495
		c1.009-0.124,2.873-0.612,3.984,0.782c0,0,2.653,5.045,2.856,6.238c0,0,4.531-8.066,10.062-9.312c0,0-1.349-3.038,1.394-6.973
		c0,0,3.435-4.532,3.537-7.022C32.801,13.456,33.708,9.26,29.422,4.48z M24.117,3.652l0.706,0.708l-2.23,2.229l-0.707-0.708
		L24.117,3.652z M17.88,2.63h1v2.917h-1V2.63z M13.105,4.109l2.081,2.082l-0.707,0.707l-2.081-2.082L13.105,4.109z M10.422,10.588
		v-1h2.916v1H10.422z M12.643,16.528l-0.707-0.707l2.232-2.23l0.707,0.707L12.643,16.528z M20.639,16.96
		c0,0.272-0.262,0.493-0.586,0.493H19.92c-0.204,0.583-0.852,1.011-1.624,1.011c-0.774,0-1.42-0.428-1.625-1.011h-0.133
		c-0.322,0-0.584-0.221-0.584-0.493v-2.601c-1.093-1.017-1.811-2.651-1.811-4.222c0-2.527,1.858-3.922,4.151-3.922
		c2.292,0,4.149,1.396,4.149,3.922c0,1.569-0.717,3.205-1.809,4.222v2.601H20.639z M23.755,16.172l-2.081-2.081l0.707-0.707
		l2.081,2.081L23.755,16.172z M26.338,10.588h-2.916v-1h2.916V10.588z"/>
</g>
<g>
</g>
<g>
</g>
<g>
</g>
<g>
</g>
<g>
</g>
<g>
</g>
<g>
</g>
<g>
</g>
<g>
</g>
<g>
</g>
<g>
</g>
<g>
</g>
<g>
</g>
<g>
</g>
<g>
</g>
</svg>
