<?xml version="1.0" encoding="iso-8859-1"?>
<!-- Generator: Adobe Illustrator 19.0.0, SVG Export Plug-In . SVG Version: 6.00 Build 0)  -->
<svg version="1.1" id="Layer_1" xmlns="http://www.w3.org/2000/svg" xmlns:xlink="http://www.w3.org/1999/xlink" x="0px" y="0px"
	 viewBox="0 0 512 512" style="enable-background:new 0 0 512 512;" xml:space="preserve">
<g>
	<g>
		<path d="M256,382.356c-35.743,0-64.822,29.079-64.822,64.822C191.178,482.921,220.257,512,256,512s64.822-29.079,64.822-64.822
			C320.822,411.435,291.743,382.356,256,382.356z M256,491.602c-24.495,0-44.424-19.927-44.424-44.423
			c0-24.495,19.928-44.424,44.424-44.424s44.424,19.927,44.424,44.423S280.495,491.602,256,491.602z"/>
	</g>
</g>
<g>
	<g>
		<path d="M286.836,0h-61.672c-18.74,0-33.987,15.246-33.987,33.986v273.838c0,18.74,15.246,33.987,33.986,33.987h61.672
			c18.74,0,33.987-15.247,33.987-33.988V33.986C320.822,15.246,305.576,0,286.836,0z M300.424,307.823
			c0,7.492-6.095,13.588-13.587,13.588h-61.672c-7.491,0-13.587-6.095-13.587-13.588V33.986c0-7.491,6.095-13.587,13.587-13.587
			h61.672c7.491,0,13.587,6.095,13.587,13.587V307.823z"/>
	</g>
</g>
<g>
	<g>
		<path d="M233.562,160.128c-5.632,0-10.199,4.567-10.199,10.199v128.51c0,5.632,4.567,10.199,10.199,10.199
			s10.199-4.567,10.199-10.199v-128.51C243.761,164.695,239.194,160.128,233.562,160.128z"/>
	</g>
</g>
<g>
	<g>
		<path d="M233.562,121.371c-5.632,0-10.199,4.567-10.199,10.199v8.159c0,5.632,4.567,10.199,10.199,10.199
			s10.199-4.567,10.199-10.199v-8.159C243.761,125.938,239.194,121.371,233.562,121.371z"/>
	</g>
</g>
<g>
</g>
<g>
</g>
<g>
</g>
<g>
</g>
<g>
</g>
<g>
</g>
<g>
</g>
<g>
</g>
<g>
</g>
<g>
</g>
<g>
</g>
<g>
</g>
<g>
</g>
<g>
</g>
<g>
</g>
</svg>
