<?xml version="1.0" encoding="iso-8859-1"?>
<!-- Generator: Adobe Illustrator 19.0.0, SVG Export Plug-In . SVG Version: 6.00 Build 0)  -->
<svg version="1.1" id="Capa_1" xmlns="http://www.w3.org/2000/svg" xmlns:xlink="http://www.w3.org/1999/xlink" x="0px" y="0px"
	 viewBox="0 0 228.496 228.496" style="enable-background:new 0 0 228.496 228.496;" xml:space="preserve">
<g>
	<path d="M190.77,89.392l-18.493-25.688c-3.434-4.783-10.734-8.45-16.622-8.45h-2.772h-0.485h-3.599
		c8.502-5,14.181-14.729,14.181-25.435c0-16.421-13.359-29.82-29.781-29.82c-16.421,0-29.78,13.419-29.78,29.84
		c0,10.705,5.68,20.415,14.181,25.415h-4.086H46.817c-6.574,0-11.922,4.11-11.922,9.5s5.348,9.5,11.922,9.5h55.58v59.664
		c0,4.752,3.152,8.793,7.397,10.292l0.143,63.273c0.015,10.432,8.562,18.771,18.994,18.771h8.586
		c10.432,0,18.928-8.34,18.938-18.772l0.059-63.349c2.968-1.051,5.347-3.306,6.51-6.219c5.272-0.559,11.322-4.209,14.284-8.801
		l13.915-21.567C194.561,102.367,194.363,94.399,190.77,89.392z M169.971,106.325l-6.575,8.993V88.003l6.139,7.493
		C171.805,98.313,172.063,103.373,169.971,106.325z"/>
	<path d="M67.73,200.679c-7.669,0-13.908,6.239-13.908,13.908s6.239,13.908,13.908,13.908s13.908-6.239,13.908-13.908
		S75.399,200.679,67.73,200.679z"/>
	<path d="M77.198,92.254H59.213c-3.481,0-6.68,1.383-9.007,3.893c-2.349,2.534-3.494,5.867-3.222,9.442l7.49,78.665h27.462
		l7.495-78.722c0.268-3.519-0.878-6.852-3.227-9.386C83.878,93.637,80.68,92.254,77.198,92.254z"/>
</g>
<g>
</g>
<g>
</g>
<g>
</g>
<g>
</g>
<g>
</g>
<g>
</g>
<g>
</g>
<g>
</g>
<g>
</g>
<g>
</g>
<g>
</g>
<g>
</g>
<g>
</g>
<g>
</g>
<g>
</g>
</svg>
